<svg width="13.312454" height="13.312500" viewBox="0 0 13.3125 13.3125" fill="none" xmlns="http://www.w3.org/2000/svg" xmlns:xlink="http://www.w3.org/1999/xlink">
	<desc>
			Created with Pixso.
	</desc>
	<defs/>
	<path id="Vector" d="M10.65 4L10.65 2.65L2.65 2.65L2.65 4L10.65 4ZM8 8L8 6.65L2.65 6.65L2.65 8L8 8ZM2.65 4.65L2.65 6L10.65 6L10.65 4.65L2.65 4.65ZM12 0C12.35 0 12.65 0.13 12.9 0.4C13.17 0.65 13.31 0.95 13.31 1.31L13.31 9.31C13.31 9.66 13.17 9.98 12.9 10.25C12.65 10.51 12.35 10.65 12 10.65L2.65 10.65L0 13.31L0 1.31C0 0.95 0.12 0.65 0.37 0.4C0.64 0.13 0.95 0 1.31 0L12 0Z" fill="#FFFFFF" fill-opacity="1.000000" fill-rule="nonzero"/>
</svg>
