<svg width="440.000000" height="431.558838" viewBox="0 0 440 431.559" fill="none" xmlns="http://www.w3.org/2000/svg" xmlns:xlink="http://www.w3.org/1999/xlink">
	<desc>
			Created with Pixso.
	</desc>
	<defs>
		<clipPath id="clip5_16486">
			<rect id="Content" rx="-0.500000" width="61.000000" height="61.000000" transform="translate(53.500000 9.953613) rotate(-0.161186)" fill="white" fill-opacity="0"/>
		</clipPath>
		<clipPath id="clip6_21163">
			<rect id="Content" rx="-0.500000" width="354.000000" height="429.000000" transform="translate(43.500000 1.779297)" fill="white" fill-opacity="0"/>
		</clipPath>
		<clipPath id="clip5_16480">
			<rect id="Content" rx="-0.500000" width="77.000000" height="77.000000" transform="translate(299.500000 343.998779) rotate(-0.161186)" fill="white" fill-opacity="0"/>
		</clipPath>
	</defs>
	<rect id="Content" rx="-0.500000" width="439.000000" height="430.558746" transform="translate(0.500000 0.500000)" fill="#FFFFFF" fill-opacity="0"/>
	<rect id="Content" rx="-0.500000" width="354.000000" height="429.000000" transform="translate(43.500000 1.779297)" fill="#FFFFFF" fill-opacity="0"/>
	<g clip-path="url(#clip6_21163)">
		<path id="Vector" d="M334.66 1.27C237.44 49.22 140.22 97.17 43 145.12C43.02 154.08 43.05 163.05 43.08 172.01C43.05 172.02 43.02 172.04 43 172.05C43.02 182.01 43.05 191.98 43.09 201.94C43.06 201.95 43.02 201.97 43 201.98C43.02 210.94 43.05 219.91 43.08 228.87C43.05 228.88 43.02 228.9 43 228.91C43.12 270.89 43.25 312.87 43.38 354.84C63.75 371.35 84.1 387.84 104.47 404.35C111.77 400.47 119.07 396.6 126.36 392.72C143.76 405.57 161.16 418.43 178.56 431.27C198.31 401.39 218.06 371.51 237.8 341.63C291.2 314.05 344.59 286.48 398 258.91L398 47.03C376.89 31.78 355.77 16.53 334.66 1.27ZM131.02 369.23L125.07 378.04L124.24 378.04C124.04 374.44 123.82 370.85 123.62 367.25C123.06 357.57 122.5 347.89 121.94 338.21C121.49 330.51 121.05 322.81 120.6 315.11C120.5 315.13 120.41 315.13 120.32 315.17L85.75 332.32L62.85 343.69L53.38 348.38L53.38 152.57L330.1 15.29L330.1 211.1L191.12 280.05C175.57 303.12 160.03 326.18 144.48 349.25C140 355.9 135.5 362.57 131.02 369.23Z" fill="#AE7AFF" fill-opacity="1.000000" fill-rule="nonzero"/>
		<path id="Vector" d="M86.06 223.37L86.06 181.66L70.65 189.28L70.65 169.9L123.78 143.64L123.78 163.03L108.32 170.66L108.32 212.37L86.06 223.37L86.06 223.37Z" fill="#AE7AFF" fill-opacity="1.000000" fill-rule="nonzero"/>
		<path id="Vector" d="M86.06 223.37L86.06 181.66L70.65 189.28L70.65 169.9L123.78 143.64L123.78 163.03L108.32 170.66L108.32 212.37L86.06 223.37L86.06 223.37Z" fill="#FFFFFF" fill-opacity="0.800000" fill-rule="nonzero"/>
		<path id="Vector" d="M131.74 200.8L131.74 139.7L154.01 128.69L154.01 189.79L131.74 200.8Z" fill="#AE7AFF" fill-opacity="1.000000" fill-rule="nonzero"/>
		<path id="Vector" d="M131.74 200.8L131.74 139.7L154.01 128.69L154.01 189.79L131.74 200.8Z" fill="#FFFFFF" fill-opacity="0.800000" fill-rule="nonzero"/>
		<path id="Vector" d="M203.88 165.15C201.17 160.58 198.93 157.31 197.18 155.32C195.43 153.34 193.73 152.14 192.09 151.75C190.45 151.35 188.44 151.65 186.07 152.65L186.07 173.96L163.81 184.96L163.81 123.86L186.07 112.86L186.07 133.14C188.22 131.89 190.03 130.29 191.51 128.36C193 126.44 194.49 123.75 196.01 120.31C197.52 116.86 199.43 111.79 201.74 105.11L226.23 93.01C224.46 97.86 222.91 101.96 221.57 105.31C220.23 108.66 218.87 111.73 217.48 114.53C216.1 117.33 214.81 119.64 213.62 121.44C212.44 123.25 211.09 124.93 209.58 126.49C208.06 128.04 206.54 129.36 205 130.44C203.46 131.51 201.62 132.62 199.48 133.76L199.48 138.79C201.93 137.69 204.06 136.88 205.86 136.36C207.65 135.84 209.41 135.6 211.12 135.64C212.84 135.67 214.36 136 215.7 136.61C217.04 137.23 218.45 138.26 219.94 139.72C221.43 141.17 222.87 142.92 224.28 144.96C225.7 147 227.3 149.58 229.1 152.7L203.88 165.16L203.88 165.15Z" fill="#AE7AFF" fill-opacity="1.000000" fill-rule="nonzero"/>
		<path id="Vector" d="M203.88 165.15C201.17 160.58 198.93 157.31 197.18 155.32C195.43 153.34 193.73 152.14 192.09 151.75C190.45 151.35 188.44 151.65 186.07 152.65L186.07 173.96L163.81 184.96L163.81 123.86L186.07 112.86L186.07 133.14C188.22 131.89 190.03 130.29 191.51 128.36C193 126.44 194.49 123.75 196.01 120.31C197.52 116.86 199.43 111.79 201.74 105.11L226.23 93.01C224.46 97.86 222.91 101.96 221.57 105.31C220.23 108.66 218.87 111.73 217.48 114.53C216.1 117.33 214.81 119.64 213.62 121.44C212.44 123.25 211.09 124.93 209.58 126.49C208.06 128.04 206.54 129.36 205 130.44C203.46 131.51 201.62 132.62 199.48 133.76L199.48 138.79C201.93 137.69 204.06 136.88 205.86 136.36C207.65 135.84 209.41 135.6 211.12 135.64C212.84 135.67 214.36 136 215.7 136.61C217.04 137.23 218.45 138.26 219.94 139.72C221.43 141.17 222.87 142.92 224.28 144.96C225.7 147 227.3 149.58 229.1 152.7L203.88 165.16L203.88 165.15Z" fill="#FFFFFF" fill-opacity="0.800000" fill-rule="nonzero"/>
		<path id="Vector" d="M229.78 131.94L229.78 118.48L260.35 103.38L260.35 116.84L229.78 131.94Z" fill="#AE7AFF" fill-opacity="1.000000" fill-rule="nonzero"/>
		<path id="Vector" d="M229.78 131.94L229.78 118.48L260.35 103.38L260.35 116.84L229.78 131.94Z" fill="#FFFFFF" fill-opacity="0.800000" fill-rule="nonzero"/>
		<path id="Vector" d="M86.06 306.88L86.06 265.17L70.65 272.79L70.65 253.41L123.78 227.15L123.78 246.54L108.32 254.17L108.32 295.88L86.06 306.88L86.06 306.88Z" fill="#AE7AFF" fill-opacity="1.000000" fill-rule="nonzero"/>
		<path id="Vector" d="M86.06 306.88L86.06 265.17L70.65 272.79L70.65 253.41L123.78 227.15L123.78 246.54L108.32 254.17L108.32 295.88L86.06 306.88L86.06 306.88Z" fill="#FFFFFF" fill-opacity="0.800000" fill-rule="nonzero"/>
		<path id="Vector" d="M145.06 277.73L122.03 289.11L143.22 217.54L169.72 204.44L190.91 255.07L167.88 266.45L165.78 260.59L147.16 269.79L145.06 277.73ZM150.88 252.95L162.1 247.41C161.04 243.98 160.31 240.97 159.89 238.36C159.48 235.75 159.21 232.3 159.1 228.02L153.83 230.62C153.69 235.06 153.43 238.79 153.04 241.79C152.65 244.79 151.93 248.51 150.87 252.95L150.88 252.95Z" fill="#AE7AFF" fill-opacity="1.000000" fill-rule="nonzero"/>
		<path id="Vector" d="M145.06 277.73L122.03 289.11L143.22 217.54L169.72 204.44L190.91 255.07L167.88 266.45L165.78 260.59L147.16 269.79L145.06 277.73ZM150.88 252.95L162.1 247.41C161.04 243.98 160.31 240.97 159.89 238.36C159.48 235.75 159.21 232.3 159.1 228.02L153.83 230.62C153.69 235.06 153.43 238.79 153.04 241.79C152.65 244.79 151.93 248.51 150.87 252.95L150.88 252.95Z" fill="#FFFFFF" fill-opacity="0.800000" fill-rule="nonzero"/>
		<path id="Vector" d="M197.16 251.99L197.16 190.88L219.43 179.88L219.43 221.59L240.53 211.16L240.53 230.54L197.16 251.97L197.16 251.99Z" fill="#AE7AFF" fill-opacity="1.000000" fill-rule="nonzero"/>
		<path id="Vector" d="M197.16 251.99L197.16 190.88L219.43 179.88L219.43 221.59L240.53 211.16L240.53 230.54L197.16 251.97L197.16 251.99Z" fill="#FFFFFF" fill-opacity="0.800000" fill-rule="nonzero"/>
		<path id="Vector" d="M288.44 206.88C285.73 202.31 283.49 199.04 281.74 197.05C279.99 195.07 278.29 193.87 276.65 193.48C275.01 193.08 273 193.38 270.63 194.39L270.63 215.69L248.37 226.69L248.37 165.59L270.63 154.59L270.63 174.87C272.77 173.62 274.59 172.02 276.07 170.1C277.56 168.17 279.05 165.48 280.57 162.04C282.08 158.59 283.99 153.53 286.3 146.84L310.79 134.74C309.02 139.59 307.47 143.69 306.13 147.04C304.79 150.39 303.43 153.47 302.04 156.27C300.66 159.06 299.37 161.37 298.19 163.17C297.01 164.98 295.66 166.66 294.14 168.22C292.63 169.77 291.1 171.09 289.56 172.17C288.03 173.25 286.19 174.35 284.04 175.49L284.04 180.52C286.5 179.42 288.62 178.62 290.43 178.09C292.22 177.57 293.98 177.33 295.69 177.37C297.4 177.41 298.93 177.73 300.27 178.34C301.61 178.96 303.02 179.99 304.51 181.45C305.99 182.91 307.44 184.65 308.85 186.69C310.26 188.74 311.87 191.32 313.66 194.43L288.45 206.89L288.44 206.88Z" fill="#AE7AFF" fill-opacity="1.000000" fill-rule="nonzero"/>
		<path id="Vector" d="M288.44 206.88C285.73 202.31 283.49 199.04 281.74 197.05C279.99 195.07 278.29 193.87 276.65 193.48C275.01 193.08 273 193.38 270.63 194.39L270.63 215.69L248.37 226.69L248.37 165.59L270.63 154.59L270.63 174.87C272.77 173.62 274.59 172.02 276.07 170.1C277.56 168.17 279.05 165.48 280.57 162.04C282.08 158.59 283.99 153.53 286.3 146.84L310.79 134.74C309.02 139.59 307.47 143.69 306.13 147.04C304.79 150.39 303.43 153.47 302.04 156.27C300.66 159.06 299.37 161.37 298.19 163.17C297.01 164.98 295.66 166.66 294.14 168.22C292.63 169.77 291.1 171.09 289.56 172.17C288.03 173.25 286.19 174.35 284.04 175.49L284.04 180.52C286.5 179.42 288.62 178.62 290.43 178.09C292.22 177.57 293.98 177.33 295.69 177.37C297.4 177.41 298.93 177.73 300.27 178.34C301.61 178.96 303.02 179.99 304.51 181.45C305.99 182.91 307.44 184.65 308.85 186.69C310.26 188.74 311.87 191.32 313.66 194.43L288.45 206.89L288.44 206.88Z" fill="#FFFFFF" fill-opacity="0.800000" fill-rule="nonzero"/>
		<rect id="Content" rx="-0.500000" width="61.000000" height="61.000000" transform="translate(53.500000 9.953613) rotate(-0.161186)" fill="#FFFFFF" fill-opacity="0"/>
		<g clip-path="url(#clip5_16486)">
			<mask id="mask5_16488" mask-type="alpha" maskUnits="userSpaceOnUse" x="53.000000" y="9.279297" width="62.173828" height="62.174072">
				<path id="Vector" d="M53 9.45L115 9.27L115.17 71.27L53.17 71.45L53 9.45Z" fill="#000000" fill-opacity="1.000000" fill-rule="evenodd"/>
			</mask>
			<g mask="url(#mask5_16488)">
				<path id="Vector" d="M84.17 71.36C83.19 42 82.45 41.27 53.08 40.45C82.45 39.47 83.18 38.73 84 9.36C84.97 38.73 85.71 39.45 115.08 40.27C85.72 41.26 84.99 41.98 84.17 71.36Z" fill="#AE7AFF" fill-opacity="1.000000" fill-rule="nonzero"/>
			</g>
		</g>
	</g>
	<rect id="Content" rx="-0.500000" width="77.000000" height="77.000000" transform="translate(299.500000 343.998779) rotate(-0.161186)" fill="#FFFFFF" fill-opacity="0"/>
	<g clip-path="url(#clip5_16480)">
		<mask id="mask5_16482" mask-type="alpha" maskUnits="userSpaceOnUse" x="299.000000" y="343.279297" width="78.218750" height="78.219238">
			<path id="Vector" d="M299 343.49L377 343.27L377.21 421.27L299.22 421.49L299 343.49Z" fill="#000000" fill-opacity="1.000000" fill-rule="evenodd"/>
		</mask>
		<g mask="url(#mask5_16482)">
			<path id="Vector" d="M338 343.38C339.38 364.35 356.14 381.01 377.1 382.27C356.14 383.66 339.48 400.41 338.22 421.38C336.83 400.42 320.07 383.76 299.1 382.49C320.07 381.11 336.73 364.35 338 343.38Z" fill="#AE7AFF" fill-opacity="1.000000" fill-rule="nonzero"/>
		</g>
	</g>
</svg>
